# xmcd CD database file
#
# Track frame offsets:
#	150
#	10312
#	21407
#	42616
#	54568
#	69308
#	82292
#	97919
#	128389
#	141271
#	152558
#	177847
#	197692
#	211966
#	231068
#	262716
#	277556
#	290145
#	301877
#	319094
#	335929
#
# Disc length: 4579 seconds
#
# Revision: 1
# Processed by: cddbd v1.5.2PL0 Copyright (c) Steve Scherf et al.
# Submitted via: CDex 1.50
#
DISCID=2911e115
DTITLE=Various Artist - Blues Blues Blues
DYEAR=1900
DGENRE=Blues
TTITLE0=John Lee Hooker - Dimples
TTITLE1=Howlin' Wolf - The red Rooster
TTITLE2=Buddy Guy - Mustang Sally
TTITLE3=Johnny Winter - Shake your Money Maker
TTITLE4=Electric Flag - Wine
TTITLE5=B. B. King - Going down slow
TTITLE6=Artie Kaplan - Bensonhurst Blues
TTITLE7=Allman Brothers Band - Gambler's Roll
TTITLE8=T-Bone Walker - Stormy Monday Blues
TTITLE9=The James Cotton Band - All walks of Life
TTITLE10=Albert Collins - Blue Monday Hangover
TTITLE11=Clifton Chenier - Shake it up
TTITLE12=Darrell Nullisch and Mark Pollack - I want to love You
TTITLE13=Paul Orta and The Kingpins - Nine Below Zero
TTITLE14=Lightin' Hopkins - Mighty Crazy
TTITLE15=The Animals - Boom Boom
TTITLE16=Muddy Waters - I'm your Hoochie Coochie Man
TTITLE17=Sonny Boy Williamson - Don't start me to talkin'
TTITLE18=Charlie Musselwhite - Mean Old Frisco
TTITLE19=Loonie Brooks - Jealous Man
TTITLE20=The Yardbirds The Train kept A rolling
EXTD=
EXTT0=
EXTT1=
EXTT2=
EXTT3=
EXTT4=
EXTT5=
EXTT6=
EXTT7=
EXTT8=
EXTT9=
EXTT10=
EXTT11=
EXTT12=
EXTT13=
EXTT14=
EXTT15=
EXTT16=
EXTT17=
EXTT18=
EXTT19=
EXTT20=
PLAYORDER=
